<svg width="50" height="50" viewBox="0 0 50 50" fill="none" xmlns="http://www.w3.org/2000/svg">
<g id="mdi:twitter">
<path id="Vector" d="M46.7923 12.4999C45.1882 13.2291 43.459 13.7082 41.6673 13.9374C43.5007 12.8332 44.9173 11.0832 45.584 8.97905C43.8548 10.0207 41.9382 10.7499 39.9173 11.1666C38.2715 9.37489 35.959 8.33322 33.334 8.33322C28.4382 8.33322 24.4382 12.3332 24.4382 17.2707C24.4382 17.9791 24.5215 18.6666 24.6673 19.3124C17.2507 18.9374 10.6465 15.3749 6.25065 9.97905C5.47982 11.2916 5.04232 12.8332 5.04232 14.4582C5.04232 17.5624 6.60482 20.3124 9.02148 21.8749C7.54232 21.8749 6.16732 21.4582 4.95898 20.8332V20.8957C4.95898 25.2291 8.04232 28.8541 12.1257 29.6666C10.8147 30.0253 9.43835 30.0752 8.10482 29.8124C8.67067 31.5884 9.77885 33.1424 11.2736 34.256C12.7684 35.3696 14.5745 35.9867 16.4382 36.0207C13.279 38.5216 9.36314 39.8735 5.33398 39.8541C4.62565 39.8541 3.91732 39.8124 3.20898 39.7291C7.16732 42.2707 11.8757 43.7499 16.9173 43.7499C33.334 43.7499 42.3548 30.1249 42.3548 18.3124C42.3548 17.9166 42.3548 17.5416 42.334 17.1457C44.084 15.8957 45.584 14.3124 46.7923 12.4999Z" fill="#00A4F9"/>
</g>
</svg>
