<svg width="23" height="23" viewBox="0 0 23 23" fill="none" xmlns="http://www.w3.org/2000/svg">
<g opacity="0.4">
<path d="M11.3264 4.11495C11.2318 4.04046 11.1152 4 10.9952 4C10.8752 4 10.7586 4.04046 10.664 4.11495L3 10.1485L3.66293 10.995L4.6 10.2573V16.9231C4.60056 17.2085 4.71313 17.4821 4.91304 17.6839C5.11296 17.8858 5.38394 17.9994 5.66667 18H16.3333C16.6161 17.9994 16.887 17.8858 17.087 17.6839C17.2869 17.4821 17.3994 17.2085 17.4 16.9231V10.2622L18.3371 10.9999L19 10.1534L11.3264 4.11495ZM12.0667 16.9231H9.93333V12.6153H12.0667V16.9231ZM13.1333 16.9231V12.6153C13.1331 12.3297 13.0206 12.056 12.8206 11.8541C12.6206 11.6522 12.3495 11.5386 12.0667 11.5383H9.93333C9.65052 11.5386 9.37938 11.6522 9.1794 11.8541C8.97942 12.056 8.86695 12.3297 8.86667 12.6153V16.9231H5.66667V9.41783L11 5.22312L16.3333 9.42321V16.9231H13.1333Z" fill="#010101"/>
</g>
</svg>
