<svg width="50" height="50" viewBox="0 0 50 50" fill="none" xmlns="http://www.w3.org/2000/svg">
<path d="M25.625 47.5C37.7062 47.5 47.5 37.7062 47.5 25.625C47.5 13.5438 37.7062 3.75 25.625 3.75C13.5438 3.75 3.75 13.5438 3.75 25.625C3.75 37.7062 13.5438 47.5 25.625 47.5Z" fill="#25D366"/>
<path fill-rule="evenodd" clip-rule="evenodd" d="M26.3464 37.7953H26.341C24.164 37.7945 22.0249 37.2483 20.125 36.212L13.2295 38.0208L15.0748 31.2805C13.9365 29.3078 13.3376 27.0701 13.3385 24.7776C13.3414 17.6057 19.1766 11.7708 26.3462 11.7708C29.8259 11.7723 33.0918 13.127 35.5476 15.5857C38.0035 18.0442 39.3552 21.3123 39.3538 24.7878C39.351 31.9581 33.5181 37.7923 26.3464 37.7953ZM20.4439 33.8572L20.8387 34.0915C22.4986 35.0765 24.4014 35.5977 26.3414 35.5985H26.3458C32.3047 35.5985 37.1547 30.7484 37.157 24.7871C37.1582 21.8982 36.0347 19.182 33.9935 17.1384C31.9523 15.0948 29.2378 13.9688 26.3501 13.9678C20.3866 13.9678 15.5365 18.8174 15.5342 24.7783C15.5333 26.8212 16.1049 28.8106 17.1872 30.5319L17.4442 30.941L16.352 34.9306L20.4439 33.8572ZM32.4538 27.5883C32.6805 27.6979 32.8335 27.7719 32.8989 27.881C32.9801 28.0165 32.9801 28.6672 32.7094 29.4266C32.4385 30.1857 31.14 30.8786 30.5155 30.9719C29.9556 31.0556 29.247 31.0906 28.4684 30.8431C27.9964 30.6934 27.391 30.4934 26.6156 30.1585C23.5687 28.8428 21.5095 25.8897 21.1204 25.3315C21.0931 25.2924 21.074 25.2651 21.0634 25.2509L21.0608 25.2474C20.8888 25.0179 19.7363 23.4802 19.7363 21.8887C19.7363 20.3916 20.4717 19.6069 20.8102 19.2457C20.8334 19.221 20.8547 19.1982 20.8738 19.1774C21.1717 18.852 21.5239 18.7706 21.7405 18.7706C21.9572 18.7706 22.1741 18.7726 22.3634 18.7821C22.3868 18.7833 22.4111 18.7832 22.4362 18.783C22.6256 18.7819 22.8618 18.7805 23.0947 19.3401C23.1843 19.5554 23.3154 19.8746 23.4537 20.2113C23.7334 20.8922 24.0424 21.6445 24.0968 21.7533C24.1781 21.916 24.2322 22.1057 24.1239 22.3228C24.1076 22.3553 24.0926 22.386 24.0782 22.4153C23.9968 22.5815 23.937 22.7037 23.7989 22.8649C23.7446 22.9283 23.6884 22.9967 23.6323 23.065C23.5205 23.2012 23.4087 23.3373 23.3113 23.4343C23.1486 23.5964 22.9792 23.7722 23.1688 24.0976C23.3584 24.423 24.0107 25.4873 24.9769 26.3491C26.0156 27.2756 26.9183 27.6671 27.3758 27.8656C27.4652 27.9044 27.5375 27.9357 27.5906 27.9623C27.9155 28.1251 28.1051 28.0978 28.2947 27.881C28.4843 27.6641 29.1072 26.9319 29.3239 26.6066C29.5405 26.2813 29.7572 26.3355 30.0551 26.4439C30.3531 26.5525 31.951 27.3387 32.276 27.5013C32.3395 27.5331 32.3988 27.5618 32.4538 27.5883Z" fill="#FDFDFD"/>
</svg>
