<svg xmlns="http://www.w3.org/2000/svg" aria-hidden="true" style="position:absolute;width:0;height:0;overflow:hidden">
    <defs>
        <symbol id="icon-arrow_icon" viewBox="0 0 39 32">
            <path fill="none" stroke="#fff" stroke-linecap="round" stroke-width=".97" d="M8.522.727c-9.213 2.182-12.121 25.455 0 30.545" style="stroke:var(--color1, #fff)"/>
            <path fill="#fff" d="m21.574 12.914-4.172 4.172v-3.833l-.97.003v5.485h5.485v-.967l-3.83-.003 4.172-4.172-.686-.686z" style="fill:var(--color1, #fff)"/>
            <path fill="none" stroke="#fff" stroke-linecap="round" stroke-width=".97" d="M29.826.727c9.213 2.182 12.121 25.455 0 30.545" style="stroke:var(--color1, #fff)"/>
        </symbol>
        <symbol id="icon-denis-penis" viewBox="0 0 32 32">
            <path stroke-linecap="round" stroke-linejoin="round" stroke-width=".762" d="M25.667 3.667H6.334a2.667 2.667 0 0 0-2.667 2.667v19.333a2.667 2.667 0 0 0 2.667 2.667h19.333a2.667 2.667 0 0 0 2.667-2.667V6.334a2.667 2.667 0 0 0-2.667-2.667z"/>
            <path stroke-linecap="round" stroke-linejoin="round" stroke-width=".762" d="M21.833 13A2.834 2.834 0 0 1 19 10.167a2.83 2.83 0 0 0-2.833-2.834h-.333a2.83 2.83 0 0 0-2.833 2.833 2.834 2.834 0 0 1-2.833 2.833 2.834 2.834 0 0 0-2.833 2.833v.333a2.83 2.83 0 0 0 2.833 2.833 2.834 2.834 0 0 1 2.833 2.833 2.834 2.834 0 0 0 2.833 2.833h.333A2.834 2.834 0 0 0 19 21.831a2.834 2.834 0 0 1 2.833-2.833 2.834 2.834 0 0 0 2.833-2.833v-.333a2.834 2.834 0 0 0-2.833-2.833z"/>
            <path stroke-linecap="round" stroke-linejoin="round" stroke-width=".762" d="M22.248 18.003a2.834 2.834 0 0 1 0-4.006 2.834 2.834 0 0 0 0-4.006l-.236-.236a2.834 2.834 0 0 0-4.006 0 2.824 2.824 0 0 1-2.003.83A2.824 2.824 0 0 1 14 9.755a2.834 2.834 0 0 0-4.006 0l-.236.235a2.834 2.834 0 0 0 0 4.006 2.824 2.824 0 0 1 .83 2.003 2.85 2.85 0 0 1-.83 2.003 2.834 2.834 0 0 0 0 4.006l.235.236a2.834 2.834 0 0 0 4.006 0 2.824 2.824 0 0 1 2.003-.83 2.824 2.824 0 0 1 2.003.83 2.834 2.834 0 0 0 4.006 0l.236-.235a2.834 2.834 0 0 0 0-4.006l.001-.001z"/>
        </symbol>
        <symbol id="icon-filter" viewBox="0 0 32 32">
            <path fill="transparent" stroke="#E9E9E9" stroke-linejoin="miter" stroke-linecap="butt" stroke-miterlimit="4" stroke-width="0.7111" d="M3.556 0.356h24.889c1.767 0 3.2 1.433 3.2 3.2v24.889c0 1.767-1.433 3.2-3.2 3.2h-24.889c-1.767 0-3.2-1.433-3.2-3.2v-24.889c0-1.767 1.433-3.2 3.2-3.2z"></path>
            <path d="M16.988 15.644v4.98c0.025 0.19-0.038 0.392-0.183 0.525-0.058 0.059-0.128 0.105-0.204 0.137s-0.158 0.048-0.241 0.048c-0.083 0-0.165-0.016-0.241-0.048s-0.146-0.078-0.204-0.137l-1.27-1.27c-0.069-0.067-0.121-0.15-0.153-0.241s-0.042-0.188-0.030-0.284v-3.71h-0.019l-3.64-4.664c-0.103-0.132-0.149-0.299-0.129-0.465s0.105-0.317 0.236-0.42c0.12-0.088 0.253-0.139 0.392-0.139h8.848c0.139 0 0.272 0.051 0.392 0.139 0.131 0.103 0.216 0.254 0.236 0.42s-0.026 0.333-0.129 0.465l-3.64 4.664h-0.019z"></path>
        </symbol>
        <symbol id="icon-copy-link" viewBox="0 0 32 32">
            <path d="M13.652 20.723l-1.631 1.585c-0.428 0.428-1.008 0.668-1.612 0.668s-1.185-0.24-1.612-0.668c-0.428-0.428-0.668-1.008-0.668-1.612s0.24-1.185 0.668-1.612l4.183-4.192c0.411-0.412 0.964-0.65 1.545-0.666s1.146 0.193 1.578 0.583l0.111 0.092c0.175 0.171 0.41 0.266 0.655 0.263s0.478-0.102 0.649-0.277 0.266-0.41 0.263-0.655c-0.003-0.244-0.102-0.478-0.277-0.649-0.052-0.067-0.107-0.132-0.166-0.193-0.787-0.684-1.804-1.044-2.846-1.006s-2.030 0.47-2.766 1.209l-4.238 4.192c-0.72 0.784-1.11 1.816-1.087 2.88s0.455 2.079 1.208 2.831 1.767 1.186 2.831 1.208c1.064 0.023 2.096-0.367 2.88-1.087l1.594-1.557c0.157-0.172 0.244-0.397 0.242-0.63s-0.092-0.456-0.252-0.626c-0.16-0.169-0.378-0.272-0.61-0.287s-0.462 0.059-0.642 0.206zM23.501 7.603c-0.775-0.77-1.823-1.203-2.916-1.203s-2.141 0.432-2.916 1.203l-1.594 1.557c-0.157 0.172-0.244 0.397-0.242 0.63s0.092 0.457 0.252 0.626c0.16 0.169 0.378 0.272 0.611 0.287s0.462-0.059 0.642-0.206l1.594-1.585c0.428-0.428 1.008-0.668 1.612-0.668s1.185 0.24 1.612 0.668c0.428 0.428 0.668 1.008 0.668 1.612s-0.24 1.185-0.668 1.612l-4.183 4.192c-0.41 0.412-0.964 0.65-1.545 0.666s-1.146-0.193-1.578-0.583l-0.111-0.092c-0.175-0.171-0.41-0.266-0.655-0.263s-0.478 0.102-0.649 0.277-0.266 0.41-0.263 0.655c0.003 0.244 0.102 0.478 0.277 0.649 0.067 0.068 0.138 0.133 0.212 0.193 0.787 0.682 1.804 1.041 2.845 1.003s2.029-0.468 2.766-1.206l4.192-4.192c0.775-0.77 1.214-1.816 1.221-2.909s-0.419-2.144-1.184-2.924z"></path>
        </symbol>
        <symbol id="icon-planet" viewBox="0 0 30 32">
            <path d="M15.234 28.697c-1.735 0-3.376-.334-4.921-1.001s-2.894-1.577-4.048-2.73c-1.153-1.153-2.063-2.502-2.73-4.047s-1-3.185-.999-4.921c0-1.757.334-3.402 1.001-4.937s1.577-2.878 2.73-4.03c1.153-1.154 2.502-2.064 4.046-2.73s3.185-1 4.922-1.001c1.757 0 3.402.334 4.937 1.001s2.878 1.577 4.03 2.73c1.154 1.153 2.064 2.497 2.73 4.032s1 3.18 1.001 4.936c0 1.735-.334 3.376-1.001 4.921s-1.577 2.894-2.73 4.048c-1.153 1.153-2.497 2.063-4.032 2.73s-3.18 1-4.936.999zm0-2.603c.55-.762 1.026-1.555 1.429-2.381s.73-1.704.984-2.635h-4.825c.254.931.582 1.81.984 2.635s.878 1.619 1.429 2.381zm-3.301-.508c-.381-.698-.714-1.424-1.001-2.175s-.524-1.529-.714-2.333H6.472c.614 1.058 1.381 1.979 2.302 2.762s1.974 1.365 3.158 1.746zm6.603 0c1.185-.381 2.238-.963 3.159-1.746s1.688-1.704 2.301-2.762H20.25c-.19.804-.428 1.582-.714 2.334s-.619 1.476-1.001 2.174zM5.393 18.539H9.71a16.177 16.177 0 0 1-.19-2.54 16.616 16.616 0 0 1 .19-2.54H5.393c-.106.423-.185.841-.239 1.255s-.08.841-.079 1.285c0 .445.027.873.08 1.285s.132.83.237 1.255zm6.857 0h5.968c.064-.423.111-.841.144-1.255s.048-.841.047-1.285a16.616 16.616 0 0 0-.19-2.54h-5.968a16.177 16.177 0 0 0-.19 2.54 16.597 16.597 0 0 0 .19 2.54zm8.508 0h4.317c.106-.423.185-.841.239-1.255s.08-.841.079-1.285c0-.444-.027-.873-.08-1.285s-.133-.83-.238-1.255h-4.317c.064.423.111.841.144 1.255s.048.841.047 1.285a16.597 16.597 0 0 1-.19 2.54zm-.508-7.619h3.746c-.614-1.058-1.381-1.979-2.301-2.762s-1.973-1.365-3.159-1.746c.381.698.715 1.423 1.001 2.175s.524 1.529.714 2.333zm-7.429 0h4.825c-.254-.931-.582-1.81-.984-2.635s-.878-1.619-1.429-2.381c-.55.762-1.026 1.556-1.429 2.381s-.73 1.704-.984 2.635zm-6.349 0h3.746c.19-.804.429-1.582.715-2.334s.619-1.476.999-2.174c-1.185.381-2.238.963-3.159 1.746S7.085 9.862 6.472 10.92z"/>
        </symbol>
        <symbol id="icon-fb" viewBox="0 0 32 32">
            <path d="M0 16.089C0 24.044 5.777 30.658 13.333 32V20.444h-4V16h4v-3.556c0-4 2.577-6.221 6.223-6.221 1.155 0 2.4.177 3.555.355v4.089h-2.044c-1.956 0-2.4.977-2.4 2.223v3.111h4.267l-.711 4.444h-3.556v11.556C26.223 30.66 32 24.046 32 16.09 32 7.241 24.8.001 16 .001S0 7.241 0 16.09z"/>
        </symbol>
        <symbol id="icon-ig" viewBox="0 0 32 32">
            <path d="M16 32c-2.167 0-4.24-.422-6.219-1.266s-3.682-1.979-5.109-3.406-2.563-3.13-3.406-5.109S0 18.167 0 16s.422-4.24 1.266-6.219c.844-1.979 1.979-3.682 3.406-5.109s3.13-2.563 5.109-3.406C11.76.422 13.833 0 16 0s4.24.422 6.219 1.266c1.979.844 3.682 1.979 5.109 3.406s2.562 3.13 3.406 5.109C31.578 11.76 32 13.833 32 16s-.422 4.24-1.266 6.219c-.844 1.979-1.979 3.682-3.406 5.109s-3.13 2.562-5.109 3.406A15.692 15.692 0 0 1 16 32zm8-22c0-.542-.193-1.01-.578-1.406S22.563 8 22 8H10c-.542 0-1.01.198-1.406.594S8 9.459 8 10v2h3.562c1.208-1.333 2.688-2 4.438-2s3.229.667 4.438 2H24v-2zm-12 6c0 1.104.391 2.047 1.172 2.828S14.896 20 16 20s2.047-.391 2.828-1.172C19.609 18.047 20 17.104 20 16s-.391-2.047-1.172-2.828C18.047 12.391 17.104 12 16 12s-2.047.391-2.828 1.172A3.854 3.854 0 0 0 12 16zm12-2h-2.375c.25.688.375 1.354.375 2 0 1.667-.583 3.083-1.75 4.25S17.667 22 16 22c-1.667 0-3.083-.583-4.25-1.75S10 17.667 10 16c0-.646.125-1.312.375-2H8v8c0 .562.193 1.036.578 1.422S9.437 24 10 24h12c.562 0 1.036-.193 1.422-.578S24 22.563 24 22v-8z"/>
        </symbol>
        <symbol id="icon-carret-left-rounded" viewBox="0 0 18 32">
            <path fill="transparent" stroke-linecap="round" stroke-linejoin="round" stroke-width="3.556" d="M16 1.778 1.778 16 16 30.222"/>
        </symbol>
        <symbol id="icon-carret-right-rounded" viewBox="0 0 18 32">
            <path fill="transparent" stroke-linecap="round" stroke-linejoin="round" stroke-width="3.556" d="M1.778 1.778 16 16 1.778 30.222"/>
        </symbol>
        <symbol id="icon-procesess" viewBox="0 0 39 32">
            <path fill="#fff" d="m18.696 15.752-.11-2.473h1.67l-.095 2.473 2.316-.89.512 1.591-2.379.693 1.575 1.953-1.347.977-1.418-2.064-1.426 2.064-1.347-.977 1.583-1.953-2.371-.693.504-1.591 2.332.89z" style="fill:var(--color1, #fff)"/>
            <path fill="none" stroke="#fff" stroke-linecap="round" stroke-width=".985" d="M8.653.492c-9.354 2.215-12.307 25.846 0 31.015M30.286.492c9.354 2.215 12.307 25.846 0 31.015" style="stroke:var(--color1, #fff)"/>
        </symbol>
        <symbol id="icon-calendar" viewBox="0 0 29 32">
            <path d="M6.002 31.238h15.885c3.112 0 5.659-2.546 5.659-5.659V9.452c0-3.112-2.546-5.659-5.659-5.659h-1.051V1.57c0-.445-.364-.808-.808-.808s-.808.364-.808.808v2.223H8.67V1.57c0-.445-.364-.808-.808-.808s-.808.364-.808.808v2.223H6.003C2.891 3.793.344 6.339.344 9.452v16.087c0 3.153 2.546 5.699 5.659 5.699zm0-25.828h1.051v3.031c0 .445.364.808.808.808s.808-.364.808-.808V5.41h10.59v3.031c0 .445.364.808.808.808s.808-.364.808-.808V5.41h1.051a4.054 4.054 0 0 1 4.042 4.042v3.274H1.959V9.452A4.054 4.054 0 0 1 6.001 5.41zM1.96 14.343h23.969v11.196a4.054 4.054 0 0 1-4.042 4.042H6.002a4.054 4.054 0 0 1-4.042-4.042V14.343z"/>
        </symbol>
        <symbol id="icon-eye" viewBox="0 0 40 32">
            <path fill="none" stroke-linecap="round" stroke-linejoin="round" stroke-width="2.824" d="M37.402 14.046a3.188 3.188 0 0 1 0 3.908c-2.81 3.669-9.553 11.223-17.425 11.223S5.362 21.623 2.552 17.954a3.186 3.186 0 0 1 0-3.908c2.81-3.669 9.553-11.223 17.425-11.223s14.615 7.554 17.425 11.223v0z"/>
            <path fill="none" stroke-linecap="round" stroke-linejoin="round" stroke-width="2.824" d="M19.978 21.647a5.647 5.647 0 1 0 0-11.293 5.647 5.647 0 0 0 0 11.293z"/>
        </symbol>
        <symbol id="icon-mail-check" viewBox="0 0 32 32">
            <path fill="none" stroke="#72afff" stroke-linecap="round" stroke-linejoin="round" stroke-width="2.286" d="M14.667 25.333h-8A2.668 2.668 0 0 1 4 22.666V9.333a2.668 2.668 0 0 1 2.667-2.667h18.667a2.668 2.668 0 0 1 2.667 2.667v8" style="stroke:var(--color1, #72afff)"/>
            <path fill="none" stroke="#72afff" stroke-linecap="round" stroke-linejoin="round" stroke-width="2.286" d="m4 9.333 12 8 12-8m-8 16L22.667 28 28 22.667" style="stroke:var(--color1, #72afff)"/>
        </symbol>
        <symbol id="icon-double-carret-left" viewBox="0 0 32 32">
            <path d="m23.453 24 1.88-1.88L19.226 16l6.107-6.12L23.453 8l-8 8 8 8z"/>
            <path d="m14.667 24 1.88-1.88L10.44 16l6.107-6.12L14.667 8l-8 8 8 8z"/>
        </symbol>
        <symbol id="icon-double-carret-right" viewBox="0 0 32 32">
            <path d="m8.547 8-1.88 1.88L12.774 16l-6.107 6.12L8.547 24l8-8-8-8z"/>
            <path d="m17.333 8-1.88 1.88L21.56 16l-6.107 6.12 1.88 1.88 8-8-8-8z"/>
        </symbol>
        <symbol id="icon-carret-right" viewBox="0 0 32 32">
            <path d="M13.88 8 12 9.88 18.107 16 12 22.12 13.88 24l8-8-8-8z"/>
        </symbol>
        <symbol id="icon-carret-left" viewBox="0 0 32 32">
            <path d="M20.12 24 22 22.12 15.893 16 22 9.88 20.12 8l-8 8 8 8z"/>
        </symbol>
        <symbol id="icon-second-carret-right" viewBox="0 0 35 32">
            <path fill="transparent" stroke-linejoin="miter" stroke-linecap="round" stroke-miterlimit="4" stroke-width="2.9091" d="M11.636 2.909l13.091 13.091-13.091 13.091"></path>
        </symbol>
        <symbol id="icon-close" viewBox="0 0 51 32">
            <path d="M10.828 28.675l26.399-26.399c0.521-0.521 1.365-0.521 1.886 0s0.521 1.365 0 1.886l-26.399 26.399c-0.521 0.521-1.365 0.521-1.886 0s-0.521-1.365 0-1.886z"></path>
            <path d="M12.162 2.561l26.399 26.399c0.521 0.521 0.521 1.365 0 1.886s-1.365 0.521-1.886 0l-26.399-26.399c-0.521-0.521-0.521-1.365 0-1.886s1.365-0.521 1.886 0z"></path>
        </symbol>
    </defs>
</svg>