<svg xmlns="http://www.w3.org/2000/svg" aria-hidden="true" style="position:absolute;width:0;height:0;overflow:hidden">
    <defs>
        <symbol id="icon-arrowbtn" viewBox="0 0 35 32">
            <path fill="none" stroke="#fff" stroke-linecap="round" stroke-width="2.909" d="M11.636 2.909 24.727 16 11.636 29.091" style="stroke:var(--color1, #fff)"/>
        </symbol>
        <symbol id="icon-arrow_icon" viewBox="0 0 39 32">
            <path fill="none" stroke="#fff" stroke-linecap="round" stroke-width=".97" d="M8.522.727c-9.213 2.182-12.121 25.455 0 30.545" style="stroke:var(--color1, #fff)"/>
            <path fill="#fff" d="m21.574 12.914-4.172 4.172v-3.833l-.97.003v5.485h5.485v-.967l-3.83-.003 4.172-4.172-.686-.686z" style="fill:var(--color1, #fff)"/>
            <path fill="none" stroke="#fff" stroke-linecap="round" stroke-width=".97" d="M29.826.727c9.213 2.182 12.121 25.455 0 30.545" style="stroke:var(--color1, #fff)"/>
        </symbol>
        <symbol id="icon-denis-penis" viewBox="0 0 32 32">
            <path stroke-linecap="round" stroke-linejoin="round" stroke-width=".762" d="M25.667 3.667H6.334a2.667 2.667 0 0 0-2.667 2.667v19.333a2.667 2.667 0 0 0 2.667 2.667h19.333a2.667 2.667 0 0 0 2.667-2.667V6.334a2.667 2.667 0 0 0-2.667-2.667z"/>
            <path stroke-linecap="round" stroke-linejoin="round" stroke-width=".762" d="M21.833 13A2.834 2.834 0 0 1 19 10.167a2.83 2.83 0 0 0-2.833-2.834h-.333a2.83 2.83 0 0 0-2.833 2.833 2.834 2.834 0 0 1-2.833 2.833 2.834 2.834 0 0 0-2.833 2.833v.333a2.83 2.83 0 0 0 2.833 2.833 2.834 2.834 0 0 1 2.833 2.833 2.834 2.834 0 0 0 2.833 2.833h.333A2.834 2.834 0 0 0 19 21.831a2.834 2.834 0 0 1 2.833-2.833 2.834 2.834 0 0 0 2.833-2.833v-.333a2.834 2.834 0 0 0-2.833-2.833z"/>
            <path stroke-linecap="round" stroke-linejoin="round" stroke-width=".762" d="M22.248 18.003a2.834 2.834 0 0 1 0-4.006 2.834 2.834 0 0 0 0-4.006l-.236-.236a2.834 2.834 0 0 0-4.006 0 2.824 2.824 0 0 1-2.003.83A2.824 2.824 0 0 1 14 9.755a2.834 2.834 0 0 0-4.006 0l-.236.235a2.834 2.834 0 0 0 0 4.006 2.824 2.824 0 0 1 .83 2.003 2.85 2.85 0 0 1-.83 2.003 2.834 2.834 0 0 0 0 4.006l.235.236a2.834 2.834 0 0 0 4.006 0 2.824 2.824 0 0 1 2.003-.83 2.824 2.824 0 0 1 2.003.83 2.834 2.834 0 0 0 4.006 0l.236-.235a2.834 2.834 0 0 0 0-4.006l.001-.001z"/>
        </symbol>
        <symbol id="icon-planet" viewBox="0 0 30 32">
            <path d="M15.234 28.697c-1.735 0-3.376-.334-4.921-1.001s-2.894-1.577-4.048-2.73c-1.153-1.153-2.063-2.502-2.73-4.047s-1-3.185-.999-4.921c0-1.757.334-3.402 1.001-4.937s1.577-2.878 2.73-4.03c1.153-1.154 2.502-2.064 4.046-2.73s3.185-1 4.922-1.001c1.757 0 3.402.334 4.937 1.001s2.878 1.577 4.03 2.73c1.154 1.153 2.064 2.497 2.73 4.032s1 3.18 1.001 4.936c0 1.735-.334 3.376-1.001 4.921s-1.577 2.894-2.73 4.048c-1.153 1.153-2.497 2.063-4.032 2.73s-3.18 1-4.936.999zm0-2.603c.55-.762 1.026-1.555 1.429-2.381s.73-1.704.984-2.635h-4.825c.254.931.582 1.81.984 2.635s.878 1.619 1.429 2.381zm-3.301-.508c-.381-.698-.714-1.424-1.001-2.175s-.524-1.529-.714-2.333H6.472c.614 1.058 1.381 1.979 2.302 2.762s1.974 1.365 3.158 1.746zm6.603 0c1.185-.381 2.238-.963 3.159-1.746s1.688-1.704 2.301-2.762H20.25c-.19.804-.428 1.582-.714 2.334s-.619 1.476-1.001 2.174zM5.393 18.539H9.71a16.177 16.177 0 0 1-.19-2.54 16.616 16.616 0 0 1 .19-2.54H5.393c-.106.423-.185.841-.239 1.255s-.08.841-.079 1.285c0 .445.027.873.08 1.285s.132.83.237 1.255zm6.857 0h5.968c.064-.423.111-.841.144-1.255s.048-.841.047-1.285a16.616 16.616 0 0 0-.19-2.54h-5.968a16.177 16.177 0 0 0-.19 2.54 16.597 16.597 0 0 0 .19 2.54zm8.508 0h4.317c.106-.423.185-.841.239-1.255s.08-.841.079-1.285c0-.444-.027-.873-.08-1.285s-.133-.83-.238-1.255h-4.317c.064.423.111.841.144 1.255s.048.841.047 1.285a16.597 16.597 0 0 1-.19 2.54zm-.508-7.619h3.746c-.614-1.058-1.381-1.979-2.301-2.762s-1.973-1.365-3.159-1.746c.381.698.715 1.423 1.001 2.175s.524 1.529.714 2.333zm-7.429 0h4.825c-.254-.931-.582-1.81-.984-2.635s-.878-1.619-1.429-2.381c-.55.762-1.026 1.556-1.429 2.381s-.73 1.704-.984 2.635zm-6.349 0h3.746c.19-.804.429-1.582.715-2.334s.619-1.476.999-2.174c-1.185.381-2.238.963-3.159 1.746S7.085 9.862 6.472 10.92z"/>
        </symbol>
        <symbol id="icon-fb" viewBox="0 0 32 32">
            <path d="M0 16.089C0 24.044 5.777 30.658 13.333 32V20.444h-4V16h4v-3.556c0-4 2.577-6.221 6.223-6.221 1.155 0 2.4.177 3.555.355v4.089h-2.044c-1.956 0-2.4.977-2.4 2.223v3.111h4.267l-.711 4.444h-3.556v11.556C26.223 30.66 32 24.046 32 16.09 32 7.241 24.8.001 16 .001S0 7.241 0 16.09z"/>
        </symbol>
        <symbol id="icon-ig" viewBox="0 0 32 32">
            <path d="M16 32c-2.167 0-4.24-.422-6.219-1.266s-3.682-1.979-5.109-3.406-2.563-3.13-3.406-5.109S0 18.167 0 16s.422-4.24 1.266-6.219c.844-1.979 1.979-3.682 3.406-5.109s3.13-2.563 5.109-3.406C11.76.422 13.833 0 16 0s4.24.422 6.219 1.266c1.979.844 3.682 1.979 5.109 3.406s2.562 3.13 3.406 5.109C31.578 11.76 32 13.833 32 16s-.422 4.24-1.266 6.219c-.844 1.979-1.979 3.682-3.406 5.109s-3.13 2.562-5.109 3.406A15.692 15.692 0 0 1 16 32zm8-22c0-.542-.193-1.01-.578-1.406S22.563 8 22 8H10c-.542 0-1.01.198-1.406.594S8 9.459 8 10v2h3.562c1.208-1.333 2.688-2 4.438-2s3.229.667 4.438 2H24v-2zm-12 6c0 1.104.391 2.047 1.172 2.828S14.896 20 16 20s2.047-.391 2.828-1.172C19.609 18.047 20 17.104 20 16s-.391-2.047-1.172-2.828C18.047 12.391 17.104 12 16 12s-2.047.391-2.828 1.172A3.854 3.854 0 0 0 12 16zm12-2h-2.375c.25.688.375 1.354.375 2 0 1.667-.583 3.083-1.75 4.25S17.667 22 16 22c-1.667 0-3.083-.583-4.25-1.75S10 17.667 10 16c0-.646.125-1.312.375-2H8v8c0 .562.193 1.036.578 1.422S9.437 24 10 24h12c.562 0 1.036-.193 1.422-.578S24 22.563 24 22v-8z"/>
        </symbol>
        <symbol id="icon-carret-left-rounded" viewBox="0 0 18 32">
            <path fill="transparent" stroke-linejoin="round" stroke-linecap="round" stroke-miterlimit="4" stroke-width="3.5556" d="M16 1.778l-14.222 14.222 14.222 14.222"></path>
        </symbol>
        <symbol id="icon-carret-right-rounded" viewBox="0 0 18 32">
            <path fill="transparent" stroke-linejoin="round" stroke-linecap="round" stroke-miterlimit="4" stroke-width="3.5556" d="M1.778 1.778l14.222 14.222-14.222 14.222"></path>
        </symbol>
    </defs>
</svg>