<svg aria-hidden="true" style="position: absolute; width: 0; height: 0; overflow: hidden;" version="1.1" xmlns="http://www.w3.org/2000/svg" xmlns:xlink="http://www.w3.org/1999/xlink">
<defs>
<symbol id="icon-arrowbtn" viewBox="0 0 35 32">
<path fill="none" stroke="#fff" style="stroke: var(--color1, #fff)" stroke-linejoin="miter" stroke-linecap="round" stroke-miterlimit="4" stroke-width="2.9091" d="M11.636 2.909l13.091 13.091-13.091 13.091"></path>
</symbol>
<symbol id="icon-arrow_icon" viewBox="0 0 39 32">
<path fill="none" stroke="#fff" style="stroke: var(--color1, #fff)" stroke-linejoin="miter" stroke-linecap="round" stroke-miterlimit="4" stroke-width="0.9697" d="M8.522 0.727c-9.213 2.182-12.121 25.455 0 30.545"></path>
<path fill="#fff" style="fill: var(--color1, #fff)" d="M21.574 12.914l-4.172 4.172v-3.833l-0.97 0.003v5.485h5.485v-0.967l-3.83-0.003 4.172-4.172-0.686-0.686z"></path>
<path fill="none" stroke="#fff" style="stroke: var(--color1, #fff)" stroke-linejoin="miter" stroke-linecap="round" stroke-miterlimit="4" stroke-width="0.9697" d="M29.826 0.727c9.213 2.182 12.121 25.455 0 30.545"></path>
</symbol>
<symbol id="icon-denis-penis" viewBox="0 0 32 32">
<path stroke-linejoin="round" stroke-linecap="round" stroke-miterlimit="4" stroke-width="0.7619" d="M25.667 3.667h-19.333c-1.473 0-2.667 1.194-2.667 2.667v19.333c0 1.473 1.194 2.667 2.667 2.667h19.333c1.473 0 2.667-1.194 2.667-2.667v-19.333c0-1.473-1.194-2.667-2.667-2.667z"></path>
<path stroke-linejoin="round" stroke-linecap="round" stroke-miterlimit="4" stroke-width="0.7619" d="M21.833 13c-0.751 0-1.472-0.299-2.003-0.83s-0.83-1.252-0.83-2.003c0-0.751-0.299-1.472-0.83-2.004s-1.252-0.83-2.003-0.83h-0.333c-0.751 0-1.472 0.298-2.003 0.83s-0.83 1.252-0.83 2.003c0 0.751-0.299 1.472-0.83 2.003s-1.252 0.83-2.003 0.83c-0.751 0-1.472 0.299-2.003 0.83s-0.83 1.252-0.83 2.003v0.333c0 0.751 0.298 1.472 0.83 2.003s1.252 0.83 2.003 0.83c0.751 0 1.472 0.299 2.003 0.83s0.83 1.252 0.83 2.003c0 0.751 0.299 1.472 0.83 2.003s1.252 0.83 2.003 0.83h0.333c0.751 0 1.472-0.299 2.003-0.83s0.83-1.252 0.83-2.003c0-0.751 0.299-1.472 0.83-2.003s1.252-0.83 2.003-0.83c0.751 0 1.472-0.299 2.003-0.83s0.83-1.252 0.83-2.003v-0.333c0-0.751-0.299-1.472-0.83-2.003s-1.252-0.83-2.003-0.83z"></path>
<path stroke-linejoin="round" stroke-linecap="round" stroke-miterlimit="4" stroke-width="0.7619" d="M22.248 18.003c-0.531-0.531-0.83-1.252-0.83-2.003s0.298-1.472 0.83-2.003c0.531-0.531 0.83-1.252 0.83-2.003s-0.298-1.472-0.83-2.003l-0.236-0.236c-0.531-0.531-1.252-0.83-2.003-0.83s-1.472 0.298-2.003 0.83c-0.263 0.263-0.575 0.472-0.919 0.614s-0.712 0.216-1.084 0.216-0.741-0.073-1.084-0.216c-0.344-0.142-0.656-0.351-0.919-0.614-0.531-0.531-1.252-0.83-2.003-0.83s-1.472 0.298-2.003 0.83l-0.236 0.235c-0.531 0.531-0.83 1.252-0.83 2.003s0.299 1.472 0.83 2.003c0.263 0.263 0.472 0.575 0.614 0.919s0.216 0.712 0.216 1.084c0 0.372-0.073 0.741-0.216 1.084s-0.351 0.656-0.614 0.919c-0.531 0.531-0.83 1.252-0.83 2.003s0.299 1.472 0.83 2.003l0.235 0.236c0.531 0.531 1.252 0.83 2.003 0.83s1.472-0.298 2.003-0.83c0.263-0.263 0.575-0.472 0.919-0.614s0.712-0.216 1.084-0.216 0.741 0.073 1.084 0.216c0.344 0.142 0.656 0.351 0.919 0.614 0.531 0.531 1.252 0.83 2.003 0.83s1.472-0.298 2.003-0.83l0.236-0.235c0.531-0.531 0.83-1.252 0.83-2.003s-0.298-1.472-0.83-2.003l0.001-0.001z"></path>
</symbol>
<symbol id="icon-planet" viewBox="0 0 30 32"><path d="M15.234 28.697c-1.735 0-3.376-0.334-4.921-1.001s-2.894-1.577-4.048-2.73c-1.153-1.153-2.063-2.502-2.73-4.047s-1-3.185-0.999-4.921c0-1.757 0.334-3.402 1.001-4.937s1.577-2.878 2.73-4.030c1.153-1.154 2.502-2.064 4.046-2.73s3.185-1 4.922-1.001c1.757 0 3.402 0.334 4.937 1.001s2.878 1.577 4.030 2.73c1.154 1.153 2.064 2.497 2.73 4.032s1 3.18 1.001 4.936c0 1.735-0.334 3.376-1.001 4.921s-1.577 2.894-2.73 4.048c-1.153 1.153-2.497 2.063-4.032 2.73s-3.18 1-4.936 0.999zM15.234 26.094c0.55-0.762 1.026-1.555 1.429-2.381s0.73-1.704 0.984-2.635h-4.825c0.254 0.931 0.582 1.81 0.984 2.635s0.878 1.619 1.429 2.381zM11.933 25.586c-0.381-0.698-0.714-1.424-1.001-2.175s-0.524-1.529-0.714-2.333h-3.746c0.614 1.058 1.381 1.979 2.302 2.762s1.974 1.365 3.158 1.746zM18.536 25.586c1.185-0.381 2.238-0.963 3.159-1.746s1.688-1.704 2.301-2.762h-3.746c-0.19 0.804-0.428 1.582-0.714 2.334s-0.619 1.476-1.001 2.174zM5.393 18.539h4.317c-0.063-0.423-0.111-0.841-0.143-1.255s-0.048-0.841-0.047-1.285c0-0.444 0.016-0.873 0.048-1.285s0.080-0.83 0.142-1.255h-4.317c-0.106 0.423-0.185 0.841-0.239 1.255s-0.080 0.841-0.079 1.285c0 0.445 0.027 0.873 0.080 1.285s0.132 0.83 0.237 1.255zM12.25 18.539h5.968c0.064-0.423 0.111-0.841 0.144-1.255s0.048-0.841 0.047-1.285c0-0.444-0.016-0.873-0.048-1.285s-0.080-0.83-0.142-1.255h-5.968c-0.063 0.423-0.111 0.841-0.143 1.255s-0.048 0.841-0.047 1.285c0 0.445 0.016 0.873 0.048 1.285s0.080 0.83 0.142 1.255zM20.758 18.539h4.317c0.106-0.423 0.185-0.841 0.239-1.255s0.080-0.841 0.079-1.285c0-0.444-0.027-0.873-0.080-1.285s-0.133-0.83-0.238-1.255h-4.317c0.064 0.423 0.111 0.841 0.144 1.255s0.048 0.841 0.047 1.285c0 0.445-0.016 0.873-0.048 1.285s-0.080 0.83-0.142 1.255zM20.25 10.92h3.746c-0.614-1.058-1.381-1.979-2.301-2.762s-1.973-1.365-3.159-1.746c0.381 0.698 0.715 1.423 1.001 2.175s0.524 1.529 0.714 2.333zM12.821 10.92h4.825c-0.254-0.931-0.582-1.81-0.984-2.635s-0.878-1.619-1.429-2.381c-0.55 0.762-1.026 1.556-1.429 2.381s-0.73 1.704-0.984 2.635zM6.472 10.92h3.746c0.19-0.804 0.429-1.582 0.715-2.334s0.619-1.476 0.999-2.174c-1.185 0.381-2.238 0.963-3.159 1.746s-1.688 1.704-2.301 2.762z"></path>
</symbol>
</defs>
</svg>
