<svg width="40" height="40" viewBox="0 0 40 40" fill="none" xmlns="http://www.w3.org/2000/svg">
<path d="M40 7.81314C40.0009 7.54653 39.9488 7.28239 39.8467 7.0361C39.7446 6.78981 39.5945 6.56628 39.4052 6.37853L37.8687 4.83935C38.0058 4.56573 38.0783 4.26427 38.0805 3.95821C38.0783 3.60161 37.9832 3.25175 37.8046 2.94308C37.6261 2.63441 37.3702 2.37759 37.0621 2.19791C36.7751 2.03522 36.4526 1.94525 36.1228 1.93584C35.7929 1.92644 35.4658 1.99789 35.17 2.14396L33.6215 0.594794C33.235 0.225573 32.721 0.0195383 32.1865 0.0195383C31.652 0.0195383 31.1381 0.225573 30.7516 0.594794L29.1371 2.20923C24.8962 0.0311179 20.0166 -0.560364 15.3781 0.541407C10.7395 1.64318 6.64716 4.36572 3.83864 8.21827C1.03011 12.0708 -0.309809 16.7999 0.0604245 21.5531C0.430659 26.3063 2.48669 30.7709 5.85788 34.1421C9.22908 37.5133 13.6937 39.5693 18.4469 39.9396C23.2001 40.3098 27.9292 38.9699 31.7817 36.1614C35.6343 33.3528 38.3568 29.2605 39.4586 24.6219C40.5604 19.9834 39.9689 15.1038 37.7908 10.8629L39.4052 9.24842C39.5945 9.0605 39.7445 8.83685 39.8466 8.59046C39.9487 8.34407 40.0008 8.07985 40 7.81314ZM36.3895 3.3468C36.4817 3.4011 36.5605 3.47568 36.6197 3.5649C36.6789 3.65412 36.717 3.75563 36.7312 3.86177C36.7454 3.9679 36.7352 4.07587 36.7015 4.1775C36.6678 4.27914 36.6114 4.37177 36.5366 4.4484L21.2108 19.7762C21.0779 19.9032 20.9011 19.974 20.7173 19.974C20.5335 19.974 20.3567 19.9032 20.2238 19.7762C20.0929 19.6453 20.0194 19.4678 20.0194 19.2827C20.0194 19.0976 20.0929 18.9201 20.2238 18.7892L35.497 3.5153C35.608 3.39514 35.7546 3.31388 35.9154 3.28354C36.0761 3.25319 36.2423 3.27537 36.3895 3.3468ZM19.282 20.7173C19.4704 20.9059 19.6942 21.0556 19.9404 21.1576C20.1867 21.2597 20.4507 21.3123 20.7173 21.3123C20.9839 21.3123 21.2479 21.2597 21.4941 21.1576C21.7404 21.0556 21.9642 20.9059 22.1526 20.7173L23.3194 19.5504C23.3385 19.6931 23.3486 19.8368 23.3494 19.9807C23.3494 20.6393 23.1541 21.2832 22.7882 21.8308C22.4223 22.3784 21.9022 22.8053 21.2937 23.0573C20.6852 23.3094 20.0156 23.3753 19.3696 23.2468C18.7237 23.1183 18.1303 22.8012 17.6646 22.3354C17.1988 21.8697 16.8817 21.2763 16.7532 20.6304C16.6247 19.9844 16.6906 19.3148 16.9427 18.7063C17.1947 18.0978 17.6216 17.5777 18.1692 17.2118C18.7168 16.8459 19.3607 16.6506 20.0193 16.6506C20.163 16.6515 20.3065 16.6615 20.4489 16.6806L19.282 17.8494C18.9024 18.2301 18.6892 18.7458 18.6892 19.2834C18.6892 19.821 18.9024 20.3366 19.282 20.7173ZM21.5512 15.577C20.5543 15.23 19.4692 15.2316 18.4734 15.5814C17.4775 15.9313 16.6299 16.6087 16.069 17.5029C15.5082 18.3971 15.2674 19.4551 15.386 20.5039C15.5046 21.5528 15.9756 22.5303 16.722 23.2767C17.4684 24.023 18.4459 24.494 19.4947 24.6127C20.5435 24.7313 21.6016 24.4905 22.4958 23.9296C23.39 23.3688 24.0674 22.5212 24.4172 21.5253C24.7671 20.5295 24.7687 19.4444 24.4217 18.4475L26.9133 15.9559C27.6339 17.1747 28.0132 18.5649 28.0116 19.9807C28.0116 21.5614 27.5428 23.1066 26.6646 24.421C25.7864 25.7353 24.5382 26.7597 23.0778 27.3646C21.6174 27.9695 20.0104 28.1278 18.4601 27.8194C16.9097 27.511 15.4857 26.7498 14.3679 25.6321C13.2502 24.5143 12.489 23.0903 12.1806 21.5399C11.8722 19.9896 12.0305 18.3826 12.6354 16.9222C13.2403 15.4618 14.2647 14.2136 15.579 13.3354C16.8934 12.4572 18.4386 11.9884 20.0193 11.9884C21.435 11.9864 22.8252 12.3653 24.0441 13.0854L21.5512 15.577ZM25.0145 12.117C23.5243 11.1603 21.7901 10.6532 20.0193 10.6564C18.1751 10.6564 16.3724 11.2032 14.839 12.2278C13.3056 13.2524 12.1105 14.7086 11.4048 16.4124C10.699 18.1162 10.5144 19.991 10.8742 21.7998C11.2339 23.6085 12.122 25.2699 13.426 26.574C14.7301 27.878 16.3915 28.7661 18.2002 29.1258C20.009 29.4856 21.8838 29.301 23.5876 28.5952C25.2914 27.8895 26.7476 26.6944 27.7722 25.161C28.7967 23.6276 29.3436 21.8249 29.3436 19.9807C29.3469 18.2098 28.8395 16.4755 27.8824 14.9855L30.7496 12.1216C32.7417 14.8378 33.6347 18.2061 33.2499 21.5525C32.8652 24.8988 31.231 27.9765 28.6744 30.1697C26.1178 32.3629 22.8274 33.5099 19.4614 33.3811C16.0955 33.2523 12.9023 31.8574 10.5207 29.4752C8.13917 27.0931 6.74492 23.8996 6.61694 20.5336C6.48896 17.1676 7.63668 13.8775 9.83047 11.3214C12.0243 8.76531 15.1023 7.13187 18.4488 6.74788C21.7952 6.36389 25.1633 7.25768 27.879 9.25042L25.0145 12.117ZM29.8798 3.35013L31.6933 1.53655C31.8261 1.4095 32.0028 1.33858 32.1865 1.33858C32.3703 1.33858 32.547 1.4095 32.6797 1.53655L34.139 2.99247L30.5491 6.57967L29.7113 4.06277C29.67 3.9401 29.664 3.80833 29.6937 3.68239C29.7235 3.55644 29.788 3.44135 29.8798 3.35013ZM20.0193 38.6293C17.203 38.6303 14.4231 37.9933 11.8881 36.7663C9.35316 35.5393 7.12904 33.7541 5.38266 31.5447C3.63629 29.3352 2.41301 26.7589 1.80465 24.0091C1.19629 21.2593 1.21863 18.4074 1.87001 15.6675C2.52139 12.9275 3.78489 10.3707 5.56567 8.1889C7.34646 6.00708 9.59829 4.25693 12.1522 3.0698C14.706 1.88267 17.4956 1.28938 20.3115 1.33447C23.1275 1.37956 25.8966 2.06186 28.4112 3.33015C28.312 3.70979 28.3251 4.11008 28.4491 4.48236L29.4981 7.62932L28.8321 8.29534C25.8597 6.04939 22.1459 5.01482 18.4404 5.4005C14.735 5.78618 11.3138 7.56338 8.86767 10.3733C6.42152 13.1832 5.13258 16.8166 5.26105 20.5399C5.38953 24.2632 6.92585 27.799 9.55987 30.4337C12.1939 33.0683 15.7294 34.6054 19.4527 34.7348C23.1759 34.8641 26.8096 33.576 29.6201 31.1305C32.4306 28.685 34.2085 25.2643 34.5951 21.5589C34.9816 17.8535 33.9479 14.1395 31.7027 11.1666L32.3687 10.5005L35.5163 11.5495C35.7244 11.619 35.9423 11.6545 36.1617 11.6548C36.3324 11.652 36.502 11.6276 36.6665 11.5822C38.1034 14.4247 38.7879 17.5881 38.6547 20.7704C38.5214 23.9528 37.5749 27.0478 35.9054 29.7603C34.2359 32.4728 31.8991 34.7123 29.118 36.2649C26.337 37.8175 23.2044 38.6315 20.0193 38.6293ZM38.4635 8.30666L36.6499 10.1236C36.5584 10.2154 36.4431 10.2799 36.3169 10.3096C36.1908 10.3394 36.0588 10.3333 35.9359 10.2921L33.4203 9.45355L37.0075 5.86103L38.4635 7.31762C38.5282 7.38238 38.5796 7.45926 38.6147 7.54388C38.6497 7.62851 38.6678 7.71921 38.6678 7.81081C38.6678 7.90241 38.6497 7.99311 38.6147 8.07773C38.5796 8.16236 38.5282 8.23924 38.4635 8.304V8.30666Z" fill="white"/>
</svg>
