<svg width="122" height="122" viewBox="0 0 122 122" fill="none" xmlns="http://www.w3.org/2000/svg">
<rect x="0.5" y="0.5" width="121" height="121" rx="15.5" fill="#F9F9F9"/>
<rect x="0.5" y="0.5" width="121" height="121" rx="15.5" stroke="#E9E9E9"/>
<path d="M69.752 51.6666C69.5647 52.5067 69.0942 53.0987 68.5325 53.0987C67.976 53.0987 67.475 52.4914 67.2827 51.6615L57.2539 54.6524L58.2457 62.6228L60.1786 64.0398L69.3269 63.3312L72.3933 54.2273L71.8721 51.54L69.752 51.6666Z" fill="url(#paint0_linear_303_4254)"/>
<path d="M69.0481 54.7431C69.1443 54.3534 69.2404 53.9333 69.3467 53.488C71.0316 46.145 73.8095 31.2314 74.523 29.3337C75.2769 27.3196 76.7241 25.9988 79.7448 26.5656C82.7656 27.1324 83.7067 30.2143 82.6391 33.9237C81.5714 37.6331 78.9909 51.8483 78.9909 56.6913C78.9909 61.5343 80.8125 71.0938 80.8125 71.0938L67.2266 66.0636L69.0481 54.7431Z" fill="url(#paint1_linear_303_4254)"/>
<path d="M40.0535 72.1671C40.0535 74.4798 41.1869 75.5172 41.7537 75.8916C41.9409 76.0182 42.0673 76.0687 42.0673 76.0687L52.6325 83.7103L71.9715 79.7478L71.3795 67.5113C60.9459 66.1753 51.5193 61.1502 40.6911 60.2695C39.502 64.146 40.0535 69.4698 40.0535 72.1671Z" fill="url(#paint2_linear_303_4254)"/>
<path d="M64.8272 58.6092C64.8272 58.6092 43.2972 54.834 41.3138 58.7054C41.0658 59.186 40.8634 59.7124 40.6914 60.264C51.5196 61.1496 60.9463 66.1697 71.3797 67.5057L71.1217 62.1921L64.8272 58.6092Z" fill="url(#paint3_linear_303_4254)"/>
<path d="M56.213 26.8797C52.5041 28.3877 52.8786 32.0364 54.3257 35.9382C55.7728 39.8398 58.6013 56.9446 58.6013 56.9446H68.539C68.539 56.9446 68.2202 55.5935 67.7142 53.4883C66.2266 47.2587 63.135 34.425 61.9965 30.4676C60.6809 25.8726 56.213 26.8797 56.213 26.8797Z" fill="url(#paint4_linear_303_4254)"/>
<path d="M60.648 72.526C65.4093 72.025 68.4351 75.9217 68.8096 77.951L70.368 77.3843L69.6597 69.601L64.6149 66.3471L57.87 64.6467L51.0291 61.0638L49.7236 56.9748C49.6882 56.9748 49.3592 56.9697 49.3238 56.9697L42.7611 57.6378C42.0527 57.9009 41.5416 58.245 41.3089 58.7005C40.4387 60.4009 40.1047 62.6123 39.9883 64.8188C41.0103 66.8785 43.3127 67.9463 45.3214 67.9463C47.6794 67.9463 49.0961 66.1548 49.9462 64.6417C49.9462 64.6417 50.1031 67.3795 53.8929 68.4169C53.8929 68.4219 56.7062 72.941 60.648 72.526Z" fill="url(#paint5_linear_303_4254)"/>
<path d="M61.5952 62.5766C60.7452 59.935 61.2765 61.868 60.6946 56.6304C60.052 50.836 58.2152 48.3258 56.7833 40.0265C55.8776 34.7635 53.7069 31.216 55.1844 27.4307C52.6089 29.1664 53.034 32.4457 54.3293 35.9376C55.4273 38.898 57.3196 49.4494 58.1698 54.3784L57.2539 54.6516L58.2456 62.6221L60.1785 64.039L61.3574 63.9479C61.661 63.6191 61.7875 63.1787 61.5952 62.5766Z" fill="url(#paint6_linear_303_4254)"/>
<path d="M80.205 67.6475C79.6737 64.424 78.9856 59.6772 78.9856 56.6913C78.9856 51.8483 81.5661 37.6331 82.6338 33.9237C83.2157 31.9096 83.1803 30.0979 82.563 28.7568C81.8343 34.1565 78.6921 41.8233 78.4796 48.9892C78.0849 62.4655 75.1248 62.1973 73.1211 63.3309C75.8383 64.4442 78.4037 65.8156 80.205 67.6475Z" fill="url(#paint7_linear_303_4254)"/>
<path d="M78.0042 26.4644C76.1421 26.6162 75.1099 27.7548 74.5179 29.3337C74.3559 29.774 74.0777 30.9025 73.7336 32.4763C72.6963 37.1929 71.0164 45.8717 69.7464 51.6763C69.6097 52.2835 69.1695 53.1034 68.532 53.0983C68.532 53.0983 68.5371 53.0983 68.532 53.0983C67.9755 53.0983 67.4744 52.491 67.2822 51.6611C65.6933 45.0267 63.0369 34.0705 61.9997 30.4673C61.271 27.9269 59.581 27.102 58.2148 26.8743C62.5815 27.7346 64.2766 49.8747 68.4865 55.0062C68.4865 55.0062 71.6388 54.9049 73.9664 35.3457C74.6799 29.3489 76.977 26.6465 78.0042 26.4644Z" fill="url(#paint8_linear_303_4254)"/>
<path d="M45.264 67.0101C42.486 67.0101 40.1838 64.748 39.8043 60.5021C39.7689 60.0973 38.9794 51.7271 43.7307 51.7271C48.138 51.7271 49.3827 53.4274 49.6711 59.0852C49.9595 64.7429 48.1431 67.0101 45.264 67.0101Z" fill="url(#paint9_linear_303_4254)"/>
<path d="M55.7939 67.6678C52.3633 67.6678 50.648 66.1598 50.1724 61.8685C49.6967 57.577 47.6322 49.8394 53.9319 49.4245C59.9683 49.0297 60.0847 52.7644 60.0847 58.989C60.0847 65.2135 58.7488 67.6678 55.7939 67.6678Z" fill="url(#paint10_linear_303_4254)"/>
<path d="M55.6029 61.7261C52.9818 63.0469 51.221 63.0722 50.0977 61.2707C50.123 61.4731 50.1534 61.6805 50.1736 61.8678C50.6492 66.1642 52.3645 67.6673 55.7952 67.6673C58.2087 67.6673 59.5395 66.0276 59.9443 62.0348C59.2713 60.8759 57.1462 60.9468 55.6029 61.7261Z" fill="url(#paint11_linear_303_4254)"/>
<path d="M45.1757 61.5342C42.8381 61.5342 40.9001 60.0818 40.5814 57.3542C40.713 58.4675 39.7263 51.7217 43.8855 51.7217C47.5944 51.7217 48.6417 52.8097 48.8846 56.4484C49.1275 60.0818 47.5944 61.5342 45.1757 61.5342Z" fill="url(#paint12_linear_303_4254)"/>
<path d="M55.3175 61.2508C52.5043 61.2508 51.2342 59.768 50.7586 56.7267C50.5107 55.1629 48.9118 49.7076 54.0829 49.4141C59.0365 49.1306 59.0365 52.754 59.1428 55.8258C59.2895 60.2539 57.7412 61.2508 55.3175 61.2508Z" fill="url(#paint13_linear_303_4254)"/>
<path d="M53.75 67.4144C54.3522 67.5815 55.0251 67.6726 55.7993 67.6726C58.7543 67.6726 60.0901 65.2181 60.0901 58.9936C60.0901 52.9918 59.9686 49.3178 54.5495 49.414C56.6797 50.6842 58.4153 53.5788 58.4153 58.8064C58.4153 66.2404 56.7455 67.3993 53.75 67.4144Z" fill="url(#paint14_linear_303_4254)"/>
<path d="M53.8924 65.3751C53.8924 62.86 55.6735 62.779 60.4348 62.3539C63.8402 62.0503 67.539 61.1597 72.2599 62.9814C77.6436 65.0613 82.6985 68.0775 82.7643 73.4873C82.8199 78.3302 79.0554 95.5667 62.5752 95.5667C46.0951 95.5667 40.5646 86.7613 40.0586 72.1664L68.8141 77.9507C68.8141 77.9507 69.4263 72.8091 65.9046 71.2859C64.4019 70.6331 61.1888 71.1594 59.0484 71.1594C56.9081 71.1594 53.8924 68.7707 53.8924 65.3751Z" fill="url(#paint15_linear_303_4254)"/>
<path d="M45.2953 64.3684C42.4719 64.3684 40.1342 62.1214 39.6484 57.9263C39.6687 58.7713 39.7294 59.6418 39.8104 60.5021C40.1949 64.7479 42.4922 67.01 45.27 67.01C47.967 67.01 49.7126 64.9807 49.6823 60.0567C49.1055 63.0779 47.5015 64.3684 45.2953 64.3684Z" fill="url(#paint16_linear_303_4254)"/>
<path d="M49.6792 59.0851C49.4061 53.6905 48.2574 51.8991 44.3359 51.7422C46.3903 52.0812 50.3674 59.996 44.8926 66.9695C45.019 66.9797 45.1405 67.01 45.2721 67.01C48.1461 67.01 49.9626 64.7428 49.6792 59.0851Z" fill="url(#paint17_linear_303_4254)"/>
<path d="M70.4924 72.9206C70.366 69.8993 66.6571 66.8832 63.5755 67.1969C60.914 67.4702 56.0969 67.8296 53.9414 65.856C54.2147 68.9884 57.0128 71.1594 59.0469 71.1594C61.1872 71.1594 64.4003 70.6332 65.9031 71.286C69.4248 72.8092 68.8126 77.9508 68.8126 77.9508C68.8126 77.9508 70.6189 75.9417 70.4924 72.9206Z" fill="url(#paint18_linear_303_4254)"/>
<path d="M82.7541 73.4873C82.6934 68.0775 77.6334 65.0664 72.2497 62.9814C67.5338 61.1597 63.8299 62.0503 60.4246 62.3539C56.7915 62.6778 54.9042 62.8094 54.2109 63.9632C58.6891 62.8549 62.8786 62.4046 68.0499 62.9967C74.7847 63.7659 79.8801 67.9206 80.806 71.0936C81.7218 74.2312 81.5852 80.0762 81.5852 80.2179C82.4556 77.4042 82.7743 74.9093 82.7541 73.4873Z" fill="url(#paint19_linear_303_4254)"/>
<path d="M68.8089 77.9506C68.8949 76.726 68.7937 75.476 68.4041 74.3171C68.0297 73.1684 67.2909 72.0804 66.203 71.5439C65.1455 70.9519 63.8451 71.0632 62.6408 71.0885C61.4163 71.139 60.1969 71.2808 58.9471 71.2757C56.3868 71.053 54.3071 68.8719 53.8366 66.4074C53.7202 65.7901 53.6898 65.1524 53.8164 64.5097C53.9479 63.8669 54.4437 63.2799 55.0459 63.0421C56.235 62.536 57.4899 62.4753 58.7093 62.3285C61.1684 62.1767 63.587 61.7365 66.0715 61.7213C68.5559 61.6859 71.0301 62.2627 73.2819 63.2699C75.5436 64.2313 77.7801 65.3649 79.6422 67.0097C81.5042 68.629 82.7945 71.0024 82.749 73.4922C82.7287 70.9974 81.398 68.6948 79.5258 67.1412C77.6739 65.537 75.4476 64.4287 73.1908 63.4925C70.9441 62.5107 68.5205 61.9743 66.0715 62.0249C63.6326 62.0552 61.1886 62.5209 58.7397 62.6879C57.5303 62.8195 56.2704 62.8852 55.1826 63.3407C54.6361 63.5634 54.2566 64.0188 54.1199 64.5805C53.9984 65.1473 54.0188 65.7647 54.125 66.3518C54.5298 68.6847 56.5537 70.8152 58.9471 71.0328C60.1615 71.053 61.391 70.9164 62.6257 70.8759C63.835 70.8658 65.1556 70.7444 66.279 71.387C67.4023 71.9791 68.1308 73.1178 68.48 74.2868C68.8544 75.476 68.9252 76.731 68.8089 77.9506Z" fill="#975500"/>
<path d="M49.4972 56.9697C49.7248 58.7663 49.9525 60.5982 49.6742 62.4251C49.5477 63.3309 49.325 64.2418 48.8848 65.0668C48.4599 65.9018 47.7161 66.5899 46.8255 66.9341C45.0192 67.5262 42.9192 66.9696 41.6846 65.5627C40.3943 64.1912 39.9137 62.2986 39.8125 60.502C40.0554 62.2834 40.6221 64.1001 41.8617 65.4007C43.066 66.7216 45.0596 67.1771 46.7041 66.6001C48.4143 66.0232 49.1935 64.1254 49.4415 62.3948C49.7248 60.6084 49.5882 58.7814 49.4972 56.9697Z" fill="#975500"/>
<path d="M54.4449 67.5565C53.8629 67.7488 53.3367 67.4907 52.8509 67.2377C52.3602 66.9795 51.92 66.6253 51.5607 66.2052C50.832 65.3653 50.4525 64.3075 50.2198 63.265C50.0123 62.2023 49.982 61.1498 49.8352 60.1022C49.7087 59.0546 49.5924 57.997 49.5469 56.9443C49.6834 57.9919 49.8656 59.0344 50.0376 60.0769C50.24 61.1143 50.326 62.1821 50.574 63.1892C50.8067 64.1962 51.1862 65.1881 51.8643 65.9472C52.1982 66.3267 52.598 66.6405 53.0483 66.8682C53.4936 67.1111 53.9844 67.1668 54.4449 67.5565Z" fill="#975500"/>
<path d="M56.7773 49.6265C57.3592 49.7732 57.9259 50.0162 58.4066 50.4008C58.8872 50.7903 59.2212 51.3268 59.4691 51.8835C59.965 53.012 60.0966 54.2366 60.2028 55.436C60.2584 56.6405 60.2635 57.8449 60.2382 59.0443C60.2281 59.6413 60.2433 60.2436 60.2129 60.8458C60.1926 61.1495 60.1876 61.453 60.1218 61.7567C60.0662 62.0198 59.9295 62.4652 59.5653 62.4348C59.8637 62.3286 59.8537 61.9845 59.9244 61.7213C59.9599 61.4328 59.9953 61.1393 59.9903 60.8407C60.0004 60.2436 59.965 59.6515 59.9498 59.0443C59.9144 57.8449 59.9295 56.6455 59.8486 55.4562C59.7828 54.2721 59.7069 53.0677 59.2717 51.9695C58.867 50.8461 57.9259 49.9858 56.7773 49.6265Z" fill="#975500"/>
<path d="M60.6478 72.5261C56.7062 72.9411 53.8878 68.422 53.8878 68.422C50.0978 67.3845 49.9411 64.6467 49.9411 64.6467C49.0909 66.1548 47.6792 67.9513 45.3162 67.9513C43.3074 67.9513 41.0102 66.8836 39.9831 64.8239C40.0084 64.3685 40.0489 63.9079 40.0944 63.4575H40.0792C39.9527 64.7024 39.9173 65.9676 39.9274 67.1821C41.9565 69.51 45.1341 69.8389 47.1631 69.2368C47.7147 69.0748 50.28 67.1365 52.2635 69.0849C54.414 71.1952 56.9136 73.8976 61.2044 73.8014C65.4952 73.7052 68.8044 77.9511 68.8044 77.9511C68.435 75.9268 65.4142 72.0251 60.6478 72.5261Z" fill="url(#paint20_linear_303_4254)"/>
<path opacity="0.5" d="M43.0907 72.6623C41.5777 74.4842 46.1772 84.9748 50.716 87.6165C55.2547 90.2581 60.9472 89.4484 62.0553 87.3482C63.1634 85.2481 58.4425 81.9839 54.5868 78.3707C47.9229 72.136 44.6036 70.8406 43.0907 72.6623Z" fill="url(#paint21_radial_303_4254)"/>
<path opacity="0.5" d="M80.0941 74.0086C80.8986 72.9257 76.876 66.2103 73.668 64.3986C70.46 62.5869 64.1351 63.6648 63.624 64.935C63.113 66.2052 69.2 67.6374 72.064 70.0361C77.0025 74.1655 79.2896 75.0916 80.0941 74.0086Z" fill="url(#paint22_radial_303_4254)"/>
<path opacity="0.5" d="M54.5011 30.3964C54.2785 29.5817 55.9077 28.1849 56.9804 27.9015C58.0531 27.6232 59.1005 28.0534 59.3282 28.8681C59.5509 29.6829 58.4883 30.442 57.5573 31.1201C55.9533 32.2891 54.7237 31.2112 54.5011 30.3964Z" fill="url(#paint23_radial_303_4254)"/>
<path opacity="0.5" d="M76.8657 27.6232C77.139 26.773 79.1883 27.1019 80.1801 27.8306C81.1718 28.5594 81.7537 29.8397 81.4805 30.6899C81.2072 31.54 79.9574 31.206 78.8543 30.9176C76.9568 30.4267 76.5924 28.4733 76.8657 27.6232Z" fill="url(#paint24_radial_303_4254)"/>
<path d="M80.7697 68.2754C81.0833 75.1173 80.0461 80.4815 74.3284 84.6514C67.2395 89.8234 67.8162 92.6979 61.208 92.6979C54.5998 92.6979 50.3393 89.2009 47.3186 86.1848C44.3029 83.1687 41.7628 78.1385 40.518 74.3076C40.3915 73.923 40.2549 73.5788 40.1133 73.2449C40.852 87.1817 46.5039 95.5672 62.5641 95.5672C79.0392 95.5672 82.8088 78.3307 82.7531 73.4928C82.7329 71.4281 81.984 69.7227 80.7697 68.2754Z" fill="url(#paint25_linear_303_4254)"/>
<defs>
<linearGradient id="paint0_linear_303_4254" x1="64.827" y1="72.9528" x2="64.827" y2="52.5737" gradientUnits="userSpaceOnUse">
<stop offset="0.00132565" stop-color="#D2A374"/>
<stop offset="1" stop-color="#DEBA94"/>
</linearGradient>
<linearGradient id="paint1_linear_303_4254" x1="75.1404" y1="72.9524" x2="75.1404" y2="52.5733" gradientUnits="userSpaceOnUse">
<stop offset="0.00132565" stop-color="#D2A374"/>
<stop offset="1" stop-color="#DEBA94"/>
</linearGradient>
<linearGradient id="paint2_linear_303_4254" x1="41.1366" y1="71.9868" x2="81.0322" y2="71.9868" gradientUnits="userSpaceOnUse">
<stop offset="0.00132565" stop-color="#D2A374"/>
<stop offset="1" stop-color="#DEBA94"/>
</linearGradient>
<linearGradient id="paint3_linear_303_4254" x1="56.0353" y1="72.9522" x2="56.0353" y2="52.5731" gradientUnits="userSpaceOnUse">
<stop offset="0.00132565" stop-color="#D2A374"/>
<stop offset="1" stop-color="#DEBA94"/>
</linearGradient>
<linearGradient id="paint4_linear_303_4254" x1="60.9186" y1="72.9527" x2="60.9186" y2="52.5736" gradientUnits="userSpaceOnUse">
<stop offset="0.00132565" stop-color="#D2A374"/>
<stop offset="1" stop-color="#DEBA94"/>
</linearGradient>
<linearGradient id="paint5_linear_303_4254" x1="43.9588" y1="94.4892" x2="56.2916" y2="67.0365" gradientUnits="userSpaceOnUse">
<stop stop-color="#D2A374" stop-opacity="0"/>
<stop offset="1" stop-color="#B88653"/>
</linearGradient>
<linearGradient id="paint6_linear_303_4254" x1="52.9787" y1="32.677" x2="65.7621" y2="74.8922" gradientUnits="userSpaceOnUse">
<stop stop-color="#D2A374" stop-opacity="0"/>
<stop offset="1" stop-color="#B88653"/>
</linearGradient>
<linearGradient id="paint7_linear_303_4254" x1="48.8981" y1="-18.0285" x2="156.923" y2="221.037" gradientUnits="userSpaceOnUse">
<stop stop-color="#D2A374" stop-opacity="0"/>
<stop offset="1" stop-color="#B88653"/>
</linearGradient>
<linearGradient id="paint8_linear_303_4254" x1="68.1102" y1="16.5934" x2="68.1102" y2="101.045" gradientUnits="userSpaceOnUse">
<stop stop-color="#D2A374" stop-opacity="0"/>
<stop offset="1" stop-color="#B88653"/>
</linearGradient>
<linearGradient id="paint9_linear_303_4254" x1="44.7189" y1="58.0458" x2="44.7189" y2="75.5254" gradientUnits="userSpaceOnUse">
<stop offset="0.00132565" stop-color="#D2A374"/>
<stop offset="1" stop-color="#DEBA94"/>
</linearGradient>
<linearGradient id="paint10_linear_303_4254" x1="54.7761" y1="58.0458" x2="54.7761" y2="75.5253" gradientUnits="userSpaceOnUse">
<stop offset="0.00132565" stop-color="#D2A374"/>
<stop offset="1" stop-color="#DEBA94"/>
</linearGradient>
<linearGradient id="paint11_linear_303_4254" x1="55.0236" y1="57.6091" x2="55.0236" y2="80.7713" gradientUnits="userSpaceOnUse">
<stop stop-color="#D2A374" stop-opacity="0"/>
<stop offset="1" stop-color="#B88653"/>
</linearGradient>
<linearGradient id="paint12_linear_303_4254" x1="44.7362" y1="60.5929" x2="44.7362" y2="47.1745" gradientUnits="userSpaceOnUse">
<stop offset="0.00132565" stop-color="#D2A374"/>
<stop offset="1" stop-color="#DEBA94"/>
</linearGradient>
<linearGradient id="paint13_linear_303_4254" x1="54.7418" y1="60.5929" x2="54.7418" y2="47.1746" gradientUnits="userSpaceOnUse">
<stop offset="0.00132565" stop-color="#D2A374"/>
<stop offset="1" stop-color="#DEBA94"/>
</linearGradient>
<linearGradient id="paint14_linear_303_4254" x1="48.0136" y1="54.3362" x2="91.1085" y2="78.8144" gradientUnits="userSpaceOnUse">
<stop stop-color="#D2A374" stop-opacity="0"/>
<stop offset="1" stop-color="#B88653"/>
</linearGradient>
<linearGradient id="paint15_linear_303_4254" x1="41.1366" y1="78.7159" x2="81.0321" y2="78.7159" gradientUnits="userSpaceOnUse">
<stop offset="0.00132565" stop-color="#D2A374"/>
<stop offset="1" stop-color="#DEBA94"/>
</linearGradient>
<linearGradient id="paint16_linear_303_4254" x1="44.5697" y1="57.6033" x2="45.7656" y2="77.4276" gradientUnits="userSpaceOnUse">
<stop stop-color="#D2A374" stop-opacity="0"/>
<stop offset="1" stop-color="#B88653"/>
</linearGradient>
<linearGradient id="paint17_linear_303_4254" x1="34.0922" y1="52.0878" x2="100.6" y2="94.3131" gradientUnits="userSpaceOnUse">
<stop stop-color="#D2A374" stop-opacity="0"/>
<stop offset="1" stop-color="#B88653"/>
</linearGradient>
<linearGradient id="paint18_linear_303_4254" x1="59.4587" y1="78.2846" x2="66.4205" y2="57.7622" gradientUnits="userSpaceOnUse">
<stop stop-color="#D2A374" stop-opacity="0"/>
<stop offset="1" stop-color="#B88653"/>
</linearGradient>
<linearGradient id="paint19_linear_303_4254" x1="62.0704" y1="60.8522" x2="91.4746" y2="89.1726" gradientUnits="userSpaceOnUse">
<stop offset="0.3118" stop-color="#F0C492" stop-opacity="0"/>
<stop offset="1" stop-color="#E6AF74"/>
</linearGradient>
<linearGradient id="paint20_linear_303_4254" x1="51.5679" y1="79.4935" x2="60.7205" y2="51.5678" gradientUnits="userSpaceOnUse">
<stop stop-color="#D2A374" stop-opacity="0"/>
<stop offset="1" stop-color="#B88653"/>
</linearGradient>
<radialGradient id="paint21_radial_303_4254" cx="0" cy="0" r="1" gradientUnits="userSpaceOnUse" gradientTransform="translate(52.0782 81.7222) rotate(-138.963) scale(13.2204 6.0323)">
<stop stop-color="#E9CDB1"/>
<stop offset="1" stop-color="#E9CDB1" stop-opacity="0"/>
</radialGradient>
<radialGradient id="paint22_radial_303_4254" cx="0" cy="0" r="1" gradientUnits="userSpaceOnUse" gradientTransform="translate(72.3704 67.4775) rotate(38.2192) scale(10.194 3.75352)">
<stop stop-color="#E9CDB1"/>
<stop offset="1" stop-color="#E9CDB1" stop-opacity="0"/>
</radialGradient>
<radialGradient id="paint23_radial_303_4254" cx="0" cy="0" r="1" gradientUnits="userSpaceOnUse" gradientTransform="translate(56.9094 29.7217) rotate(165.356) scale(2.51441 1.47626)">
<stop stop-color="#E9CDB1"/>
<stop offset="1" stop-color="#E9CDB1" stop-opacity="0"/>
</radialGradient>
<radialGradient id="paint24_radial_303_4254" cx="0" cy="0" r="1" gradientUnits="userSpaceOnUse" gradientTransform="translate(79.1336 29.2042) rotate(-143.693) scale(2.79375 1.48497)">
<stop stop-color="#E9CDB1"/>
<stop offset="1" stop-color="#E9CDB1" stop-opacity="0"/>
</radialGradient>
<linearGradient id="paint25_linear_303_4254" x1="61.436" y1="62.8048" x2="61.436" y2="161.116" gradientUnits="userSpaceOnUse">
<stop stop-color="#D2A374" stop-opacity="0"/>
<stop offset="1" stop-color="#B88653"/>
</linearGradient>
</defs>
</svg>
