<svg width="50" height="50" viewBox="0 0 50 50" fill="none" xmlns="http://www.w3.org/2000/svg">
<g id="uil:link">
<path id="Vector" d="M22.1047 32.9319L19.6075 35.3585C18.9527 36.0133 18.0645 36.3812 17.1385 36.3812C16.2124 36.3812 15.3243 36.0133 14.6695 35.3585C14.0147 34.7037 13.6468 33.8156 13.6468 32.8896C13.6468 31.9635 14.0147 31.0754 14.6695 30.4206L21.0747 24.0012C21.7034 23.3705 22.5505 23.0056 23.4407 22.9819C24.331 22.9583 25.1962 23.2778 25.8575 23.8743L26.0268 24.0153C26.2943 24.2773 26.655 24.4222 27.0294 24.4182C27.4037 24.4142 27.7612 24.2617 28.0232 23.9942C28.2851 23.7266 28.43 23.366 28.426 22.9916C28.4221 22.6172 28.2695 22.2598 28.002 21.9978C27.9224 21.8949 27.8376 21.796 27.748 21.7016C26.5437 20.6537 24.9861 20.1029 23.3907 20.1605C21.7954 20.2181 20.2816 20.88 19.156 22.0119L12.6661 28.4313C11.5633 29.6316 10.9669 31.2116 11.0014 32.8412C11.0359 34.4709 11.6987 36.0242 12.8513 37.1768C14.0038 38.3294 15.5572 38.9921 17.1868 39.0266C18.8164 39.0611 20.3964 38.4647 21.5968 37.3619L24.0375 34.9776C24.2785 34.7147 24.411 34.3703 24.4083 34.0136C24.4056 33.657 24.2679 33.3146 24.023 33.0553C23.7781 32.7961 23.444 32.6392 23.0881 32.6163C22.7322 32.5934 22.3808 32.7062 22.1047 32.9319ZM37.1866 12.8415C35.9998 11.662 34.3945 11 32.7213 11C31.048 11 29.4428 11.662 28.2559 12.8415L25.8152 15.2258C25.5742 15.4887 25.4417 15.8331 25.4444 16.1898C25.4471 16.5464 25.5848 16.8888 25.8297 17.148C26.0746 17.4073 26.4087 17.5641 26.7646 17.587C27.1205 17.6099 27.4719 17.4972 27.748 17.2715L30.1888 14.8449C30.8436 14.19 31.7317 13.8222 32.6578 13.8222C33.5838 13.8222 34.4719 14.19 35.1268 14.8449C35.7816 15.4997 36.1494 16.3878 36.1494 17.3138C36.1494 18.2399 35.7816 19.128 35.1268 19.7828L28.7215 26.2021C28.0928 26.8329 27.2457 27.1978 26.3555 27.2214C25.4653 27.2451 24.6 26.9256 23.9388 26.3291L23.7695 26.188C23.5019 25.9261 23.1413 25.7812 22.7669 25.7852C22.3925 25.7891 22.035 25.9417 21.7731 26.2092C21.5112 26.4767 21.3663 26.8374 21.3702 27.2118C21.3742 27.5861 21.5267 27.9436 21.7943 28.2055C21.8968 28.3104 22.0051 28.4093 22.1188 28.5018C23.3246 29.5465 24.8815 30.0953 26.4759 30.0377C28.0702 29.9801 29.5835 29.3204 30.7108 28.1914L37.1302 21.7721C38.3171 20.5927 38.9893 18.9916 38.9999 17.3184C39.0104 15.6452 38.3586 14.0357 37.1866 12.8415Z" fill="#010101"/>
</g>
</svg>
